<svg width="21" height="20" viewBox="0 0 21 20" fill="none" xmlns="http://www.w3.org/2000/svg">
<mask id="mask0_83_360" style="mask-type:alpha" maskUnits="userSpaceOnUse" x="0" y="0" width="21" height="20">
<rect x="0.5" width="20" height="20" fill="#D9D9D9"/>
</mask>
<g mask="url(#mask0_83_360)">
<path d="M9.5 14H6.5C5.39333 14 4.45 13.6095 3.67 12.8285C2.89 12.0477 2.5 11.1033 2.5 9.99521C2.5 8.88729 2.89 7.94444 3.67 7.16667C4.45 6.38889 5.39333 6 6.5 6H9.5V7.5H6.5C5.80556 7.5 5.21528 7.74306 4.72917 8.22917C4.24306 8.71528 4 9.30556 4 10C4 10.6944 4.24306 11.2847 4.72917 11.7708C5.21528 12.2569 5.80556 12.5 6.5 12.5H9.5V14ZM7.5 10.75V9.25H13.5V10.75H7.5ZM11.5 14V12.5H14.5C15.1944 12.5 15.7847 12.2569 16.2708 11.7708C16.7569 11.2847 17 10.6944 17 10C17 9.30556 16.7569 8.71528 16.2708 8.22917C15.7847 7.74306 15.1944 7.5 14.5 7.5H11.5V6H14.5C15.6067 6 16.55 6.39049 17.33 7.17146C18.11 7.95229 18.5 8.89674 18.5 10.0048C18.5 11.1127 18.11 12.0556 17.33 12.8333C16.55 13.6111 15.6067 14 14.5 14H11.5Z" fill="#F9F9F9"/>
</g>
</svg>
